<svg id="favorite" data-name="レイヤー 1" xmlns="http://www.w3.org/2000/svg" viewBox="0 0 24 22"><defs><style>.cls-1{fill-rule:evenodd;}</style></defs><path class="cls-1" d="M12,21.59C6.37,16.05,1,11.3,1,7.19A5.06,5.06,0,0,1,6.28,2c1.31,0,4.15.5,5.72,4.46C13.59,2.49,16.46,2,17.73,2A5,5,0,0,1,23,7.19c0,4.07-5.14,8.63-11,14.4M17.73,1A6.53,6.53,0,0,0,12,4.25,6.51,6.51,0,0,0,6.28,1,6,6,0,0,0,0,7.19C0,11.85,5.57,16.62,12,23c6.43-6.38,12-11.15,12-15.81A6,6,0,0,0,17.73,1" transform="translate(0 -1)"/></svg>