<svg id="october" data-name="october" xmlns="http://www.w3.org/2000/svg" viewBox="0 0 80.56 66.61"><path d="M11.07,12.28A5.37,5.37,0,0,1,8.78,19.7,5.42,5.42,0,0,1,1.1,18.27c-2-2.67-1.26-5.88,2.09-7.9S9.65,9.27,11.07,12.28Zm-8.65,5C4,19.51,6.09,19.92,8.16,18.67s2.69-3.3,1.49-5.68S6.2,10,3.8,11.4.89,15.17,2.42,17.33Z"/><path d="M22.7,7.14l-1.21.94a2.33,2.33,0,0,0-2.86-.77,2.7,2.7,0,0,0-1.79,3.86,2.78,2.78,0,0,0,3.71,1.91,2.29,2.29,0,0,0,1.86-2.3l1.37.05a3.85,3.85,0,0,1-2.85,3.3,4,4,0,0,1-5.45-2.42c-1-2.38,0-4.54,2.84-5.48A3.92,3.92,0,0,1,22.7,7.14Z"/><path d="M33.39,10.7a3.52,3.52,0,0,1-2.08,1A2.15,2.15,0,0,1,28.6,10c-.29-1.61-.59-3.22-.89-4.83-.62.11-1.24.23-1.85.36l-.23-1.08L27.51,4c-.12-.63-.23-1.26-.35-1.89l1.5-.61L29,3.78q1.76-.28,3.51-.48l.12,1.1c-1.15.13-2.3.28-3.45.47L30,9.5a1.14,1.14,0,0,0,1.46,1,2.12,2.12,0,0,0,1.38-.77C33,10,33.2,10.36,33.39,10.7Z"/><path d="M45,7.09a4,4,0,0,1-4.39,4A4,4,0,0,1,36.28,7c-.17-2.58,1.48-4.29,4.4-4.27S45.22,4.51,45,7.09Zm-7.27-.15a2.92,2.92,0,1,0,5.84,0,2.73,2.73,0,0,0-2.89-3.15A2.73,2.73,0,0,0,37.72,6.94Z"/><path d="M57.93,9.41C57.19,11.92,55.31,13,53,12.47a3.39,3.39,0,0,1-2.58-2.09c-.11.46-.21.91-.32,1.36L49,11.56,50.68,0l1.6.25c-.28,1.62-.56,3.24-.83,4.86a3.61,3.61,0,0,1,3.37-.77C57.45,4.92,58.68,6.92,57.93,9.41ZM56.53,9a2.69,2.69,0,0,0-2.12-3.64A2.67,2.67,0,0,0,51,7.73l0,.19a2.74,2.74,0,0,0,2.16,3.42C54.77,11.69,56.05,10.82,56.53,9Z"/><path d="M69.29,14.4A62.56,62.56,0,0,0,63,11.61a2.78,2.78,0,0,0,1.72,3.47c1.17.51,2.14.51,2.76,0,.28.35.56.69.82,1a4.08,4.08,0,0,1-4,0,4.05,4.05,0,0,1-2.45-5.45c.84-2.44,2.94-3.41,5.67-2.23s3.22,3.38,2.26,5.2A6.08,6.08,0,0,1,69.29,14.4Zm-5.86-3.85q2.61,1,5.16,2.23a2.53,2.53,0,0,0-1.54-3.33A2.62,2.62,0,0,0,63.43,10.55Z"/><path d="M80.56,16.07c-.34.27-.67.54-1,.82a3.14,3.14,0,0,0-.9-.88,2.45,2.45,0,0,0-3.57.79l-2.33,3.64-1.19-.74q2.07-3.42,4.15-6.84l1.09.67c-.17.41-.34.82-.52,1.23a3.2,3.2,0,0,1,3.45.53A3,3,0,0,1,80.56,16.07Z"/><path d="M28.75,41.15V66.23h-3V47.84c0-.83,0-1.86.08-2.92a14.79,14.79,0,0,1-6.5,3.53l-.8-2.77c1.79-.23,6.19-2.59,7.6-4.53Z"/><path d="M38.9,53.69c0-8.39,3.26-12.92,9.34-12.92s9.35,4.53,9.35,12.92-3.27,12.92-9.35,12.92S38.9,62.09,38.9,53.69Zm15.54,0c0-6.61-2.17-10.18-6.2-10.18s-6.19,3.57-6.19,10.18,2.17,10.19,6.19,10.19S54.44,60.3,54.44,53.69Z"/></svg>