<svg id="account" data-name="レイヤー 1" xmlns="http://www.w3.org/2000/svg" viewBox="0 0 24 24"><defs><style>.cls-1{fill-rule:evenodd;}</style></defs><path class="cls-1" d="M12,0C6.92,0,3.53,5,8.27,13.68c1.59,2.94-1.73,3.64-5.09,4.42C.1,18.81,0,20.33,0,23v1H24V23c0-2.69-.1-4.22-3.18-4.93-3.44-.8-6.64-1.49-5.09-4.42C20.45,4.77,17,0,12,0m0,1a4.66,4.66,0,0,1,4.22,2.15c1.36,2.25.87,5.82-1.37,10.06a3.23,3.23,0,0,0-.29,2.93c.94,2.05,4.76,2.63,6,2.93C22.9,19.6,23,20.38,23,23H1c0-2.61.09-3.4,2.4-3.93,1.16-.27,5.14-.92,6-2.94a3.23,3.23,0,0,0-.3-2.93C6.91,9.09,6.4,5.44,7.74,3.19A4.71,4.71,0,0,1,12,1" transform="translate(0 0)"/></svg>