<svg id="logo" data-name="レイヤー 1" xmlns="http://www.w3.org/2000/svg" viewBox="0 0 952 84"><path d="M114,99c0,3.92,0,37.85,0,40-.12,0-6.68,1-19,1-13,0-22.56-.64-32-3a67.07,67.07,0,0,1-21-9c-5.45-3.53-11.32-9.16-14-14s-4-9-4-14a27.47,27.47,0,0,1,4-14c3.81-6.39,8.35-10.21,14-14a74.5,74.5,0,0,1,21-9c10.18-2.68,20.29-3,32-3a141.55,141.55,0,0,1,19,1V76a148.29,148.29,0,0,0-16-1,145.9,145.9,0,0,0-19,1,73,73,0,0,0-20,6,35.43,35.43,0,0,0-10,7,15.67,15.67,0,0,0-5,11c0,1.26,0,5.69,5,11,3,3.17,7.91,6.14,12,8a69.59,69.59,0,0,0,19,5c5.89.62,8.86.83,15,1,0-.31.08-18.91,0-26Z" transform="translate(-24 -59)"/><path d="M240,100c0,22.47-23.79,41-53,41s-53-18.53-53-41,23.79-41,53-41S240,77.53,240,100ZM187,74c-18.54,0-33,11.67-33,26s14.46,26,33,26,33-11.67,33-26S205.54,74,187,74Z" transform="translate(-24 -59)"/><path d="M366,100c0,22.47-23.79,41-53,41s-53-18.53-53-41,23.79-41,53-41S366,77.53,366,100ZM313,74c-18.54,0-33,11.67-33,26s14.46,26,33,26,33-11.67,33-26S331.54,74,313,74Z" transform="translate(-24 -59)"/><path d="M481,100a29.57,29.57,0,0,1-5,17c-2.92,4.5-10.89,11.65-22,16a78.8,78.8,0,0,1-18,5,178.76,178.76,0,0,1-28,2H386V60h19a186,186,0,0,1,29,2,95.9,95.9,0,0,1,20,5,50.87,50.87,0,0,1,18,11A29.66,29.66,0,0,1,481,100Zm-20,0c0-5-1.42-11.48-9-17-6.27-4.57-15-6.14-21-7-8.44-1.21-15.39-1-23-1h-3v50h4c6.86,0,17.31.12,24-1a48,48,0,0,0,11-3,34.17,34.17,0,0,0,12-8A19.4,19.4,0,0,0,461,100Z" transform="translate(-24 -59)"/><path d="M571,131c-7.31,6.72-17.79,10-31,10-22,0-39-11.09-39-25,0-8.17,5.8-16.14,16-21-6.06-5.07-8-9.4-8-15,0-12.42,15.46-21,31-21,14.88,0,27,7,30,16l-18,4c-1.42-4.37-5.84-7-12-7-6.69,0-12,3.62-12,8s7.21,9,18,16l-13,10-3-2c-5.85,2.49-9,6.48-9,11,0,6.93,8.61,13,19,13a25.16,25.16,0,0,0,17-6l-12-8,12-10,44,29-12,10Z" transform="translate(-24 -59)"/><path d="M635,60l57,55V60h19v80H692L635,85v55H616V60Z" transform="translate(-24 -59)"/><path d="M802,60V75H755V92h46v15H755v18h48v15H736V60Z" transform="translate(-24 -59)"/><path d="M837,60l25,49,25-49h20l25,49,25-49h19l-40,80h-8L897,79l-31,61h-8L818,60Z" transform="translate(-24 -59)"/></svg>