<svg id="レイヤー_1" data-name="レイヤー 1" xmlns="http://www.w3.org/2000/svg" viewBox="0 0 198 80"><path d="M90,39V79c0,.12-6.68,1-19,1-13,0-22.56-.64-32-3a67.07,67.07,0,0,1-21-9C12.55,64.47,6.68,58.84,4,54S0,45,0,40A27.47,27.47,0,0,1,4,26c3.81-6.39,8.35-10.21,14-14A74.5,74.5,0,0,1,39,3C49.18.32,59.29,0,71,0A141.55,141.55,0,0,1,90,1V16a148.29,148.29,0,0,0-16-1,145.9,145.9,0,0,0-19,1,73,73,0,0,0-20,6,35.43,35.43,0,0,0-10,7,15.67,15.67,0,0,0-5,11c0,1.26,0,5.69,5,11,3,3.17,7.91,6.14,12,8a69.59,69.59,0,0,0,19,5c5.89.62,8.86.83,15,1,0-.31.08-18.91,0-26ZM122,0l57,55V0h19V80H179L122,25V80H103V0Z"/></svg>