<?xml version="1.0" standalone="no"?>
<!DOCTYPE svg PUBLIC "-//W3C//DTD SVG 20010904//EN"
 "http://www.w3.org/TR/2001/REC-SVG-20010904/DTD/svg10.dtd">
<svg version="1.0" xmlns="http://www.w3.org/2000/svg"
 width="1584.000000pt" height="1584.000000pt" viewBox="0 0 1584.000000 1584.000000"
 preserveAspectRatio="xMidYMid meet">
<metadata>
Created by potrace 1.14, written by Peter Selinger 2001-2017
</metadata>
<g transform="translate(0.000000,1584.000000) scale(0.100000,-0.100000)"
fill="#000000" stroke="none">
<path d="M4998 11115 c-2 -2 -82 -6 -178 -9 -205 -8 -322 -14 -405 -21 -33 -3
-91 -8 -130 -11 -38 -2 -88 -7 -110 -9 -22 -3 -65 -7 -95 -10 -30 -3 -66 -9
-80 -12 -14 -4 -29 -5 -34 -4 -4 1 -43 -3 -85 -9 -42 -7 -89 -13 -106 -15 -16
-2 -43 -6 -60 -9 -16 -4 -46 -9 -65 -12 -91 -14 -130 -21 -185 -34 -22 -5 -92
-21 -155 -35 -108 -23 -166 -38 -385 -99 -82 -22 -362 -115 -410 -135 -11 -5
-36 -15 -55 -22 -196 -72 -574 -251 -789 -373 -73 -42 -137 -76 -142 -76 -4 0
-9 -4 -11 -8 -1 -4 -25 -21 -53 -37 -27 -15 -52 -31 -55 -35 -3 -4 -32 -24
-64 -46 -82 -55 -249 -176 -266 -194 -3 -3 -30 -25 -60 -50 -30 -25 -66 -54
-79 -65 -69 -57 -268 -262 -340 -350 -45 -55 -90 -109 -99 -121 -30 -35 -152
-223 -152 -233 0 -5 -3 -11 -7 -13 -19 -8 -173 -298 -173 -325 0 -4 -6 -20
-14 -35 -12 -23 -37 -89 -42 -110 -1 -5 -3 -10 -4 -13 -1 -3 -4 -9 -5 -15 -1
-5 -3 -11 -5 -12 -1 -2 -3 -10 -5 -18 -2 -8 -15 -60 -29 -115 -27 -106 -32
-133 -42 -205 -3 -25 -8 -54 -11 -65 -9 -34 -11 -414 -3 -459 5 -22 10 -61 14
-86 3 -25 8 -56 11 -70 3 -14 7 -36 10 -50 3 -14 12 -50 20 -80 9 -30 18 -63
20 -73 2 -9 6 -21 9 -25 3 -5 7 -19 10 -33 14 -72 153 -372 240 -519 179 -303
517 -656 901 -941 66 -49 125 -93 130 -97 6 -4 42 -27 80 -52 161 -101 225
-139 225 -132 0 4 4 2 8 -4 16 -24 355 -197 547 -279 61 -25 124 -53 140 -60
17 -7 50 -20 75 -28 25 -8 56 -20 70 -25 30 -13 62 -25 73 -27 4 -2 9 -4 12
-5 3 -1 8 -3 13 -4 4 -1 52 -17 107 -35 55 -18 107 -34 115 -36 8 -2 35 -11
60 -18 25 -8 47 -15 50 -15 3 0 25 -6 50 -13 25 -6 52 -13 60 -15 18 -3 35 -7
115 -27 33 -9 71 -18 85 -21 114 -21 197 -39 210 -43 8 -3 24 -7 35 -9 47 -6
102 -15 125 -20 35 -7 57 -11 115 -19 28 -3 57 -8 65 -10 8 -2 42 -7 75 -10
33 -4 71 -8 85 -10 85 -14 165 -22 375 -40 374 -31 636 -39 1315 -39 529 0
763 4 980 19 36 3 101 7 145 10 124 8 255 21 330 31 22 4 47 6 55 6 28 1 39
18 30 47 -4 16 -4 34 0 41 4 7 4 25 0 41 -5 15 -6 30 -3 32 7 7 8 106 1 112
-3 3 -2 23 2 45 4 22 4 40 0 40 -4 0 -4 16 0 34 4 19 5 37 3 40 -3 2 -5 20 -4
38 1 18 2 54 3 80 1 27 -1 50 -4 54 -3 3 -2 21 2 40 4 19 4 36 0 39 -5 3 -5
18 -1 33 4 15 5 38 1 52 -3 14 -3 39 0 55 4 17 4 39 0 50 -4 11 -5 24 -2 29 3
5 4 34 3 65 -1 31 -2 63 -1 71 0 39 -1 67 -3 90 -2 14 0 34 4 45 3 11 3 32 -1
47 -5 14 -5 29 -2 33 5 5 6 85 1 111 -1 5 -1 14 1 19 1 6 1 35 0 65 0 30 -1
62 0 70 0 40 -1 67 -3 90 -2 14 -1 29 1 34 3 5 4 52 3 105 -1 53 -2 103 -2
111 1 8 1 40 1 70 -1 30 -1 62 0 70 0 8 0 29 -1 45 0 35 0 35 2 97 1 27 0 50
-3 53 -3 3 -2 23 2 45 4 22 4 40 0 40 -4 0 -4 16 0 34 4 19 5 37 3 40 -3 2 -5
20 -4 38 1 18 2 54 3 80 1 27 -1 50 -4 54 -3 3 -2 21 2 40 4 19 4 36 0 39 -5
3 -5 18 -1 33 4 15 5 38 1 52 -4 14 -4 34 0 45 4 11 4 34 0 52 -4 18 -5 35 -2
38 3 3 5 29 3 58 -1 28 -2 58 -1 65 0 15 0 31 1 102 0 30 1 73 1 96 1 22 -2
45 -5 51 -8 13 -56 23 -62 13 -3 -4 -20 -4 -39 0 -19 4 -40 4 -46 0 -7 -4 -24
-4 -39 0 -14 4 -35 4 -46 0 -11 -4 -24 -5 -29 -2 -4 2 -34 4 -65 3 -31 -1 -65
-1 -76 -1 -11 1 -24 1 -30 1 -5 0 -28 0 -50 0 -22 0 -48 -1 -57 -1 -10 0 -25
0 -33 0 -15 0 -111 0 -142 0 -10 0 -31 0 -48 -1 -16 0 -34 0 -40 0 -5 0 -23 0
-40 0 -16 1 -38 1 -47 1 -78 -1 -136 -1 -153 0 -11 1 -24 1 -30 1 -5 0 -28 0
-50 0 -22 0 -48 -1 -57 -1 -10 0 -25 0 -33 0 -13 0 -97 0 -142 0 -107 0 -158
-1 -161 -5 -2 -2 -3 -28 -2 -57 5 -187 2 -1637 -4 -1647 -4 -6 -3 -11 3 -11 7
0 7 -8 1 -25 -5 -13 -6 -26 -2 -29 6 -4 6 -51 0 -164 -2 -23 -1 -42 2 -42 4 0
4 -28 1 -86 -1 -14 -302 -9 -571 11 -25 1 -88 6 -140 9 -52 4 -108 8 -125 10
-16 2 -64 6 -105 10 -41 4 -97 9 -125 12 -27 3 -66 7 -85 9 -59 6 -144 16
-170 21 -14 2 -47 7 -75 10 -27 3 -56 7 -64 10 -8 2 -30 7 -50 10 -53 8 -73
11 -101 18 -14 3 -36 8 -50 10 -14 2 -36 7 -50 10 -14 3 -36 8 -50 10 -30 5
-338 84 -360 92 -8 3 -17 6 -20 6 -3 0 -16 5 -30 10 -14 5 -33 11 -42 13 -32
7 -231 76 -338 118 -58 23 -107 42 -110 42 -24 4 -245 113 -345 170 -27 15
-61 35 -75 42 -14 8 -38 23 -55 33 -16 11 -46 29 -65 40 -74 43 -260 178 -347
254 -81 68 -231 230 -276 296 -72 106 -139 215 -142 230 -1 3 -7 19 -15 35
-32 74 -59 147 -61 167 0 4 -5 22 -10 40 -17 58 -21 90 -23 211 -6 274 94 557
274 778 45 56 180 190 255 254 32 28 63 55 69 60 24 23 203 153 226 165 14 7
27 16 30 20 17 24 313 182 440 235 36 15 83 35 105 45 119 54 506 191 605 215
8 2 36 10 63 18 26 8 47 13 47 11 0 -3 8 0 18 5 21 11 289 76 400 96 15 3 38
7 52 10 60 12 87 17 120 21 19 2 53 6 75 9 62 10 85 13 150 20 33 3 78 8 100
11 22 2 69 7 105 9 36 3 92 7 125 10 183 16 441 28 637 29 98 1 178 3 178 6 0
6 169 4 176 -3 3 -2 20 -1 39 3 19 4 36 6 39 3 2 -2 93 -6 203 -9 260 -5 536
-20 703 -38 19 -2 69 -7 110 -10 117 -10 182 -16 216 -21 34 -5 33 -8 35 87 0
31 -2 62 -6 67 -3 6 -3 11 2 11 4 0 7 28 5 62 -1 35 -3 70 -3 78 1 37 0 67 -2
90 -2 14 -1 29 1 34 3 5 4 52 3 105 -1 53 -2 103 -2 111 1 8 1 38 2 67 1 28
-1 55 -4 60 -2 4 -1 17 3 28 4 11 4 32 -1 47 -4 14 -5 29 -2 32 4 3 5 47 4 98
-1 51 -2 99 -1 106 2 71 -2 112 -11 113 -5 1 -12 2 -16 3 -9 2 -174 19 -213
22 -51 3 -176 15 -200 19 -14 2 -79 7 -145 11 -66 4 -138 9 -160 11 -45 5
-1452 13 -1457 8z"/>
<path d="M8237 11108 c-2 -7 0 -25 4 -40 4 -15 4 -30 0 -33 -5 -2 -6 -22 -2
-42 3 -21 4 -56 1 -78 -3 -22 -2 -55 1 -72 4 -18 3 -33 -1 -33 -5 0 -6 -12 -4
-27 3 -16 5 -35 5 -43 -2 -38 -2 -59 -1 -114 1 -32 -1 -60 -3 -63 -3 -2 -1
-20 3 -39 4 -18 4 -34 0 -34 -5 0 -6 -12 -4 -27 3 -16 5 -35 5 -43 -2 -38 -2
-59 -1 -114 1 -32 -1 -60 -3 -63 -3 -2 -1 -20 3 -39 4 -18 4 -34 0 -34 -5 0
-7 -10 -4 -22 7 -32 6 -117 -2 -130 -5 -7 -2 -8 6 -3 9 6 11 4 5 -5 -4 -7 -7
-42 -6 -79 3 -80 2 -118 -2 -151 -1 -14 0 -39 4 -57 4 -18 2 -36 -4 -42 -6 -6
-7 -11 -1 -11 5 0 7 -28 4 -69 -3 -40 -1 -67 4 -64 5 4 6 0 1 -7 -4 -7 -7 -42
-6 -79 3 -80 2 -118 -2 -151 -1 -14 0 -39 4 -57 4 -18 2 -36 -4 -42 -6 -6 -7
-11 -1 -11 5 0 7 -28 4 -69 -3 -40 -1 -67 4 -64 5 4 6 0 1 -7 -4 -7 -7 -42 -6
-79 2 -72 2 -95 1 -156 -1 -22 -1 -69 0 -104 1 -35 -1 -65 -3 -68 -3 -2 -1
-20 3 -39 4 -18 4 -34 0 -34 -5 0 -6 -12 -4 -27 3 -16 5 -35 5 -43 -2 -38 -2
-59 -1 -114 1 -32 -1 -60 -3 -63 -3 -2 -1 -20 3 -39 4 -18 4 -34 0 -34 -5 0
-6 -12 -4 -27 3 -16 5 -35 5 -43 -2 -38 -2 -59 -1 -114 1 -32 -1 -60 -3 -63
-3 -2 -1 -20 3 -39 4 -18 4 -34 0 -34 -5 0 -6 -12 -4 -27 3 -16 5 -35 5 -43
-2 -38 -2 -59 -1 -114 1 -32 -1 -60 -3 -63 -3 -2 -1 -20 3 -39 4 -18 4 -34 0
-34 -5 0 -7 -10 -4 -22 7 -32 6 -117 -2 -130 -5 -7 -2 -8 6 -3 9 6 11 4 5 -5
-4 -7 -7 -42 -6 -79 3 -80 2 -118 -2 -151 -1 -14 0 -39 4 -57 4 -18 2 -36 -4
-42 -6 -6 -7 -11 -1 -11 5 0 7 -28 4 -69 -3 -40 -1 -67 4 -64 5 4 6 0 1 -7 -4
-7 -7 -42 -6 -79 3 -80 2 -118 -2 -151 -1 -14 0 -39 4 -57 4 -18 2 -36 -4 -42
-6 -6 -7 -11 -1 -11 5 0 7 -28 4 -69 -3 -40 -1 -67 4 -64 5 4 6 0 1 -7 -4 -7
-7 -42 -6 -79 2 -72 2 -95 1 -156 -1 -22 -1 -69 0 -104 1 -35 -1 -65 -3 -68
-3 -2 -1 -20 3 -39 4 -18 4 -34 0 -34 -5 0 -6 -12 -4 -27 3 -16 5 -35 5 -43
-2 -38 -2 -59 -1 -114 1 -32 -1 -60 -3 -63 -3 -2 -1 -20 3 -39 4 -18 4 -34 0
-34 -5 0 -7 -10 -4 -22 7 -32 6 -117 -2 -130 -5 -7 -2 -8 6 -3 9 6 11 4 5 -5
-4 -7 -7 -42 -6 -79 3 -80 2 -118 -2 -151 -1 -14 0 -39 4 -57 4 -18 2 -36 -4
-42 -6 -6 -7 -11 -1 -11 5 0 7 -28 4 -69 -3 -40 -1 -67 4 -64 5 4 6 0 1 -7 -4
-7 -7 -42 -6 -79 1 -36 2 -79 2 -96 -1 -16 -1 -54 -2 -82 0 -29 2 -57 6 -63 4
-7 258 -10 760 -10 711 0 754 1 754 18 0 9 1 41 2 70 1 29 -1 55 -4 58 -3 3
-2 16 3 28 4 13 5 29 0 36 -4 7 -4 26 0 41 5 16 5 29 0 29 -5 0 -5 13 0 30 5
16 5 32 1 35 -4 2 -5 25 -1 50 4 25 3 45 -1 45 -4 0 -4 14 1 30 5 19 5 30 -1
30 -6 0 -7 4 -4 10 8 13 11 108 3 115 -3 4 -2 20 2 36 5 16 5 31 0 34 -5 3 -6
15 0 29 4 12 4 29 0 36 -5 8 -5 21 0 31 5 9 7 19 4 22 -8 8 -10 117 -2 117 4
0 3 14 -2 30 -5 17 -6 30 -2 30 8 0 6 85 -2 106 -3 8 -1 14 4 14 5 0 5 13 0
30 -5 17 -6 30 -2 30 8 0 7 68 -1 76 -3 3 -2 17 3 30 5 13 6 25 2 28 -8 5 -7
74 2 83 3 3 1 13 -4 22 -5 10 -5 23 0 31 5 8 5 21 0 30 -5 9 -5 22 0 29 4 8 4
27 0 42 -5 16 -5 29 0 29 5 0 5 13 0 30 -5 17 -6 30 -2 30 8 0 6 85 -2 106 -3
8 -1 14 4 14 5 0 5 13 0 30 -5 17 -6 30 -2 30 4 0 7 16 7 35 0 19 -3 35 -7 35
-4 0 -3 13 2 30 5 16 5 32 1 35 -4 2 -5 25 -1 50 4 25 3 45 -1 45 -4 0 -4 14
1 30 5 17 5 30 0 30 -5 0 -5 12 -1 28 4 15 4 39 0 55 -4 15 -3 27 1 27 5 0 5
14 0 30 -5 17 -6 30 -2 30 8 0 6 85 -2 106 -3 8 -1 14 4 14 5 0 5 13 0 30 -5
17 -6 30 -2 30 8 0 7 68 -1 76 -3 3 -2 17 3 30 5 13 6 25 2 28 -8 5 -7 74 2
83 3 3 1 13 -4 22 -5 10 -5 23 0 31 5 8 5 21 0 30 -5 9 -5 22 0 29 4 8 4 27 0
42 -5 16 -5 29 0 29 5 0 5 13 0 30 -5 17 -6 30 -2 30 8 0 6 85 -2 106 -3 8 -1
14 4 14 5 0 5 13 0 30 -5 17 -6 30 -2 30 4 0 7 16 7 35 0 19 -3 35 -7 35 -4 0
-3 13 2 30 5 16 5 32 1 35 -4 2 -5 25 -1 50 4 25 3 45 -1 45 -4 0 -4 14 1 30
5 17 5 30 0 30 -5 0 -5 12 -1 28 4 15 4 39 0 55 -4 15 -3 27 1 27 5 0 5 14 0
30 -5 17 -6 30 -2 30 8 0 6 85 -2 106 -3 8 -1 14 4 14 5 0 5 13 0 30 -5 17 -6
30 -2 30 8 0 7 68 -1 76 -3 3 -2 17 3 30 5 13 6 25 2 28 -8 5 -7 74 2 83 3 3
1 13 -4 22 -5 10 -5 23 0 31 5 8 5 21 0 30 -5 9 -5 22 0 29 4 8 4 27 0 42 -5
16 -5 29 0 29 5 0 5 13 0 30 -5 17 -6 30 -2 30 8 0 7 83 -2 105 -3 8 -1 17 4
20 5 3 6 15 0 29 -4 12 -4 29 0 36 6 10 35 -12 112 -87 57 -56 168 -164 248
-241 80 -77 184 -178 232 -223 47 -46 168 -163 268 -259 101 -96 238 -229 306
-295 68 -66 201 -194 295 -285 95 -91 211 -203 260 -250 48 -47 172 -167 276
-267 103 -100 233 -225 288 -278 55 -53 174 -168 265 -255 91 -87 220 -212
287 -277 67 -65 198 -192 293 -283 94 -91 218 -210 275 -265 56 -55 159 -154
227 -220 69 -66 226 -217 349 -336 123 -119 262 -253 309 -298 47 -45 126
-122 177 -171 l92 -90 760 0 761 0 0 3200 0 3200 -758 0 -758 0 -3 -27 c-1
-16 -2 -35 -2 -43 1 -8 1 -26 0 -40 -1 -31 -1 -66 0 -102 1 -16 1 -40 2 -55 0
-16 1 -39 1 -53 0 -14 -1 -37 -1 -52 -1 -16 -1 -40 -2 -55 0 -16 -1 -39 -1
-53 0 -14 1 -37 1 -52 1 -16 1 -40 2 -55 0 -16 1 -39 1 -53 0 -14 -1 -37 -1
-52 -1 -16 -1 -40 -2 -55 0 -16 -1 -39 -1 -53 0 -14 1 -37 1 -52 1 -16 1 -40
2 -55 0 -16 1 -39 1 -53 0 -14 -1 -37 -1 -52 -1 -16 -1 -40 -2 -55 0 -16 -1
-39 -1 -53 0 -14 1 -37 1 -52 1 -16 1 -40 2 -55 0 -16 1 -39 1 -53 0 -14 -1
-37 -1 -52 -1 -16 -1 -40 -2 -55 -1 -37 -1 -72 0 -103 1 -14 1 -33 1 -42 0
-10 0 -39 0 -65 1 -27 -1 -57 -3 -68 -2 -11 -1 -34 4 -52 4 -18 3 -35 -1 -38
-4 -3 -5 -20 -1 -37 4 -18 5 -44 4 -58 -2 -14 -3 -46 -3 -72 0 -27 0 -55 0
-63 0 -8 0 -22 0 -30 0 -8 0 -36 0 -62 1 -27 -1 -57 -3 -68 -2 -11 -1 -34 4
-52 4 -18 3 -35 -1 -38 -4 -3 -4 -20 0 -39 4 -19 4 -39 0 -46 -4 -7 -4 -27 0
-45 4 -18 4 -39 0 -45 -4 -7 -4 -26 0 -41 5 -16 5 -31 0 -34 -4 -2 -5 -18 -1
-35 3 -17 4 -69 1 -116 -3 -47 -3 -87 0 -89 3 -2 3 -31 0 -65 -3 -34 -2 -64 2
-66 5 -3 6 -10 2 -16 -3 -5 -5 -40 -5 -76 3 -91 2 -133 -2 -157 -2 -11 -1 -34
4 -52 4 -18 3 -35 -1 -38 -4 -3 -4 -20 0 -39 4 -19 4 -39 0 -46 -4 -7 -4 -27
0 -45 4 -18 4 -39 0 -45 -4 -7 -4 -26 0 -41 5 -16 5 -31 0 -34 -4 -2 -5 -18
-1 -35 3 -17 4 -69 1 -116 -3 -47 -3 -87 0 -89 3 -2 3 -31 0 -65 -3 -34 -2
-64 2 -66 5 -3 6 -10 2 -16 -3 -5 -5 -40 -5 -76 3 -91 2 -133 -2 -157 -2 -11
-1 -34 4 -52 4 -18 3 -35 -1 -38 -4 -3 -5 -20 -1 -37 4 -18 4 -45 0 -60 -4
-15 -4 -29 -1 -33 6 -6 4 -97 -3 -103 -2 -2 -21 13 -43 34 -22 22 -130 127
-242 234 -111 107 -235 227 -275 265 -40 39 -170 165 -290 280 -120 116 -255
246 -300 290 -46 44 -174 168 -285 275 -112 107 -240 231 -286 275 -331 320
-489 473 -574 555 -54 52 -180 174 -280 270 -100 96 -217 209 -260 250 -42 41
-161 156 -264 255 -103 99 -240 232 -305 295 -65 63 -208 201 -316 305 -109
105 -226 217 -260 250 -34 33 -158 152 -275 265 -117 113 -232 224 -255 248
l-43 42 -760 0 c-599 0 -761 -3 -765 -12z"/>
</g>
</svg>
